<?xml version="1.0" standalone="no"?><!DOCTYPE svg PUBLIC "-//W3C//DTD SVG 1.1//EN" "http://www.w3.org/Graphics/SVG/1.1/DTD/svg11.dtd"><svg t="1655950437869" class="icon" viewBox="0 0 1024 1024" version="1.1" xmlns="http://www.w3.org/2000/svg" p-id="1572" xmlns:xlink="http://www.w3.org/1999/xlink" width="200" height="200"><defs><style type="text/css">@font-face { font-family: feedback-iconfont; src: url("//at.alicdn.com/t/font_1031158_u69w8yhxdu.woff2?t=1630033759944") format("woff2"), url("//at.alicdn.com/t/font_1031158_u69w8yhxdu.woff?t=1630033759944") format("woff"), url("//at.alicdn.com/t/font_1031158_u69w8yhxdu.ttf?t=1630033759944") format("truetype"); }
</style></defs><path d="M256 832c36.032-0.64 66.176-13.184 90.496-37.504 24.32-24.32 36.8-54.528 37.504-90.496-0.64-36.032-13.184-66.176-37.504-90.496C322.176 589.184 291.968 576.704 256 576c-36.032 0.64-66.176 13.184-90.496 37.504-24.32 24.32-36.8 54.528-37.504 90.496 0.64 36.032 13.184 66.176 37.504 90.496 24.32 24.32 54.528 36.8 90.496 37.504z m0 64c-54.656-1.344-100.032-20.032-136-56S65.344 758.72 64 704c1.344-54.656 20.032-100.032 56-136S201.28 513.344 256 512c54.656 1.344 100.032 20.032 136 56S446.656 649.28 448 704c-1.344 54.656-20.032 100.032-56 136S310.72 894.656 256 896z m32-224h320c21.312 0 32 10.688 32 32 0 21.312-10.688 32-32 32h-320c-21.312 0-32-10.688-32-32 0-21.312 10.688-32 32-32zM768 832c36.032-0.64 66.176-13.184 90.496-37.504 24.32-24.32 36.8-54.528 37.504-90.496-0.64-36.032-13.184-66.176-37.504-90.496-24.32-24.32-54.528-36.8-90.496-37.504-36.032 0.64-66.176 13.184-90.496 37.504-24.32 24.32-36.8 54.528-37.504 90.496 0.64 36.032 13.184 66.176 37.504 90.496 24.32 24.32 54.528 36.8 90.496 37.504z m0 64c-54.656-1.344-100.032-20.032-136-56S577.344 758.72 576 704c1.344-54.656 20.032-100.032 56-136S713.28 513.344 768 512c54.656 1.344 100.032 20.032 136 56s54.656 81.28 56 136c-1.344 54.656-20.032 100.032-56 136s-81.28 54.656-136 56zM480 192a31.168 31.168 0 0 1-23.04-8.96A31.168 31.168 0 0 1 448 160c0-9.344 3.008-17.024 8.96-23.04A31.168 31.168 0 0 1 480 128H640a32 32 0 0 1 30.976 24l96 384c1.984 8.64 0.64 16.64-4.032 24a30.912 30.912 0 0 1-19.456 14.016 31.808 31.808 0 0 1-38.528-22.016L615.04 192h-135.04 0.064z m-384 192a31.168 31.168 0 0 1-23.04-8.96A31.168 31.168 0 0 1 64 352c0-9.344 3.008-17.024 8.96-23.04A31.168 31.168 0 0 1 96 320h128a30.464 30.464 0 0 1 30.016 22.016l64 192a30.976 30.976 0 0 1-6.016 32 29.44 29.44 0 0 1-30.464 10.048 29.056 29.056 0 0 1-23.488-22.08L200.96 384H96z m276.992 216l-42.048-48 320-288 42.048 48-320 288z" fill="#000000" p-id="1573"></path></svg>