<?xml version="1.0" standalone="no"?><!DOCTYPE svg PUBLIC "-//W3C//DTD SVG 1.1//EN" "http://www.w3.org/Graphics/SVG/1.1/DTD/svg11.dtd"><svg t="1655950347368" class="icon" viewBox="0 0 1024 1024" version="1.1" xmlns="http://www.w3.org/2000/svg" p-id="1422" xmlns:xlink="http://www.w3.org/1999/xlink" width="200" height="200"><defs><style type="text/css">@font-face { font-family: feedback-iconfont; src: url("//at.alicdn.com/t/font_1031158_u69w8yhxdu.woff2?t=1630033759944") format("woff2"), url("//at.alicdn.com/t/font_1031158_u69w8yhxdu.woff?t=1630033759944") format("woff"), url("//at.alicdn.com/t/font_1031158_u69w8yhxdu.ttf?t=1630033759944") format("truetype"); }
</style></defs><path d="M248.47 815.06C146.75 815.06 64 732.31 64 630.59s82.75-184.47 184.47-184.47 184.47 82.75 184.47 184.47-82.75 184.47-184.47 184.47z m0-316.23c-72.66 0-131.76 59.11-131.76 131.76s59.11 131.76 131.76 131.76 131.76-59.11 131.76-131.76-59.1-131.76-131.76-131.76zM775.53 815.06c-101.72 0-184.47-82.75-184.47-184.47s82.75-184.47 184.47-184.47S960 528.87 960 630.59s-82.75 184.47-184.47 184.47z m0-316.23c-72.65 0-131.76 59.11-131.76 131.76s59.11 131.76 131.76 131.76 131.76-59.11 131.76-131.76-59.11-131.76-131.76-131.76z" fill="#333333" p-id="1423"></path><path d="M512 656.95H248.47c-8.81 0-17.04-4.4-21.93-11.74a26.337 26.337 0 0 1-2.4-24.75L355.9 304.23a26.348 26.348 0 0 1 24.33-16.22c10.64 0 20.23 6.4 24.33 16.22l131.76 316.23a26.337 26.337 0 0 1-2.4 24.75A26.354 26.354 0 0 1 512 656.95z m-224-52.71h184.47l-92.23-221.36L288 604.24z" fill="#333333" p-id="1424"></path><path d="M511.98 656.95c-3.38 0-6.81-0.66-10.12-2.03-13.44-5.6-19.79-21.03-14.19-34.46l131.78-316.23a26.345 26.345 0 0 1 24.32-16.22c10.64 0 20.23 6.4 24.32 16.22l131.76 316.23c5.6 13.43-0.75 28.86-14.18 34.46-13.47 5.59-28.87-0.76-34.46-14.19L643.77 382.87 536.32 640.73c-4.22 10.12-14.02 16.22-24.34 16.22z" fill="#333333" p-id="1425"></path><path d="M775.54 656.95c-10.32 0-20.12-6.1-24.33-16.23l-164.7-395.29c-5.6-13.43 0.75-28.86 14.18-34.46 13.5-5.59 28.89 0.76 34.46 14.19l164.7 395.29c5.6 13.43-0.75 28.86-14.18 34.46a26.183 26.183 0 0 1-10.13 2.04zM512.01 656.95c-10.33 0-20.12-6.1-24.34-16.23l-164.7-395.29c-5.6-13.43 0.75-28.86 14.19-34.46 13.43-5.6 28.86 0.75 34.46 14.19l164.7 395.29c5.6 13.43-0.75 28.86-14.19 34.46a26.062 26.062 0 0 1-10.12 2.04z" fill="#333333" p-id="1426"></path><path d="M643.77 340.71H380.23c-14.55 0-26.35-11.8-26.35-26.35s11.8-26.35 26.35-26.35h263.53c14.55 0 26.35 11.8 26.35 26.35s-11.79 26.35-26.34 26.35zM400 261.65h-79.06c-14.55 0-26.35-11.8-26.35-26.35s11.8-26.35 26.35-26.35H400c14.55 0 26.35 11.8 26.35 26.35s-11.8 26.35-26.35 26.35zM676.71 261.65H544.94c-14.55 0-26.35-11.8-26.35-26.35s11.8-26.35 26.35-26.35h131.77c14.55 0 26.35 11.8 26.35 26.35s-11.8 26.35-26.35 26.35z" fill="#333333" p-id="1427"></path></svg>